<?xml version="1.0" standalone="no"?><svg xmlns:xlink="http://www.w3.org/1999/xlink" xmlns="http://www.w3.org/2000/svg" viewBox="0 0 1000 499.99999999999994" preserveAspectRatio="xMaxYMax slice"><g transform="scale(1.1494252873563218)"><rect x="0" y="0" width="870" height="435" fill="#ffffff"/><rect x="72.5" y="72.5" width="72.5" height="72.5" fill="#ffffff"/><rect x="145" y="72.5" width="72.5" height="72.5" fill="#ffffff"/><rect x="181.25" y="72.5" width="36.25" height="36.25" fill="#d350c3"/><rect x="145" y="108.75" width="36.25" height="36.25" fill="#d760c9"/><rect x="362.5" y="72.5" width="72.5" height="72.5" fill="#ffffff"/><rect x="398.75" y="72.5" width="36.25" height="36.25" fill="#eda2e2"/><rect x="0" y="145" width="72.5" height="72.5" fill="#ffffff"/><rect x="36.25" y="181.25" width="36.25" height="36.25" fill="#da6dcd"/><rect x="217.5" y="145" width="72.5" height="72.5" fill="#ffffff"/><rect x="290" y="145" width="72.5" height="72.5" fill="#ffffff"/><rect x="326.25" y="145" width="36.25" height="36.25" fill="#e69cdd"/><rect x="326.25" y="181.25" width="36.25" height="36.25" fill="#d24dc2"/><rect x="507.5" y="145" width="72.5" height="72.5" fill="#ffffff"/><rect x="580" y="145" width="72.5" height="72.5" fill="#ffffff"/><rect x="616.25" y="145" width="36.25" height="36.25" fill="#e8a5e0"/><rect x="580" y="181.25" width="36.25" height="36.25" fill="#504188"/><rect x="797.5" y="145" width="72.5" height="72.5" fill="#ffffff"/><rect x="797.5" y="145" width="36.25" height="36.25" fill="#de7ad2"/><rect x="797.5" y="181.25" width="36.25" height="36.25" fill="#db71cf"/><rect x="0" y="217.5" width="72.5" height="72.5" fill="#ffffff"/><rect x="0" y="217.5" width="36.25" height="36.25" fill="#eea6e4"/><rect x="36.25" y="217.5" width="36.25" height="36.25" fill="#fdf6fc"/><rect x="0" y="253.75" width="36.25" height="36.25" fill="#ec9ee1"/><rect x="36.25" y="253.75" width="36.25" height="36.25" fill="#f9e0f6"/><rect x="72.5" y="217.5" width="72.5" height="72.5" fill="#ffffff"/><rect x="72.5" y="217.5" width="36.25" height="36.25" fill="#ec9be0"/><rect x="108.75" y="217.5" width="36.25" height="36.25" fill="#ebb0e4"/><rect x="108.75" y="253.75" width="36.25" height="36.25" fill="#f2bdeb"/><rect x="290" y="217.5" width="72.5" height="72.5" fill="#ffffff"/><rect x="290" y="217.5" width="36.25" height="36.25" fill="#e28bd8"/><rect x="290" y="253.75" width="36.25" height="36.25" fill="#fffdfe"/><rect x="326.25" y="253.75" width="36.25" height="36.25" fill="#362476"/><rect x="580" y="217.5" width="72.5" height="72.5" fill="#ffffff"/><rect x="580" y="217.5" width="36.25" height="36.25" fill="#e492da"/><rect x="616.25" y="217.5" width="36.25" height="36.25" fill="#8f85b3"/><rect x="725" y="217.5" width="72.5" height="72.5" fill="#ffffff"/><rect x="725" y="217.5" width="36.25" height="36.25" fill="#eda0e2"/><rect x="725" y="253.75" width="36.25" height="36.25" fill="#fae4f7"/><rect x="761.25" y="253.75" width="36.25" height="36.25" fill="#beb8d3"/><rect x="797.5" y="217.5" width="72.5" height="72.5" fill="#ffffff"/><rect x="797.5" y="217.5" width="36.25" height="36.25" fill="#fae7f8"/><rect x="833.75" y="217.5" width="36.25" height="36.25" fill="#53448a"/><rect x="0" y="290" width="72.5" height="72.5" fill="#ffffff"/><rect x="0" y="290" width="36.25" height="36.25" fill="#f5cdef"/><rect x="0" y="326.25" width="36.25" height="36.25" fill="#f9e7f7"/><rect x="36.25" y="326.25" width="36.25" height="36.25" fill="#fae5f7"/><rect x="145" y="290" width="72.5" height="72.5" fill="#ffffff"/><rect x="181.25" y="290" width="36.25" height="36.25" fill="#f4f4f8"/><rect x="145" y="326.25" width="36.25" height="36.25" fill="#d761c9"/><rect x="181.25" y="326.25" width="36.25" height="36.25" fill="#fbecf9"/><rect x="217.5" y="290" width="72.5" height="72.5" fill="#ffffff"/><rect x="217.5" y="290" width="36.25" height="36.25" fill="#dbd8e6"/><rect x="253.75" y="290" width="36.25" height="36.25" fill="#f9e6f7"/><rect x="217.5" y="326.25" width="36.25" height="36.25" fill="#bfbad4"/><rect x="253.75" y="326.25" width="36.25" height="36.25" fill="#efbee9"/><rect x="290" y="290" width="72.5" height="72.5" fill="#ffffff"/><rect x="290" y="290" width="36.25" height="36.25" fill="#e9a6e0"/><rect x="326.25" y="290" width="36.25" height="36.25" fill="#efade6"/><rect x="290" y="326.25" width="36.25" height="36.25" fill="#f5f4f8"/><rect x="326.25" y="326.25" width="36.25" height="36.25" fill="#eaaae2"/><rect x="435" y="290" width="72.5" height="72.5" fill="#ffffff"/><rect x="435" y="290" width="36.25" height="36.25" fill="#d75ec8"/><rect x="471.25" y="290" width="36.25" height="36.25" fill="#b4aecc"/><rect x="435" y="326.25" width="36.25" height="36.25" fill="#453581"/><rect x="580" y="290" width="72.5" height="72.5" fill="#ffffff"/><rect x="580" y="290" width="36.25" height="36.25" fill="#9f97be"/><rect x="616.25" y="290" width="36.25" height="36.25" fill="#d044bf"/><rect x="580" y="326.25" width="36.25" height="36.25" fill="#d865ca"/><rect x="616.25" y="326.25" width="36.25" height="36.25" fill="#fafafc"/><rect x="652.5" y="290" width="72.5" height="72.5" fill="#ffffff"/><rect x="652.5" y="290" width="36.25" height="36.25" fill="#eebbe8"/><rect x="688.75" y="290" width="36.25" height="36.25" fill="#1f0b67"/><rect x="725" y="290" width="72.5" height="72.5" fill="#ffffff"/><rect x="725" y="290" width="36.25" height="36.25" fill="#d8d5e5"/><rect x="761.25" y="290" width="36.25" height="36.25" fill="#f6dcf3"/><rect x="725" y="326.25" width="36.25" height="36.25" fill="#e9a9e2"/><rect x="761.25" y="326.25" width="36.25" height="36.25" fill="#e082d4"/><rect x="797.5" y="290" width="72.5" height="72.5" fill="#ffffff"/><rect x="797.5" y="290" width="36.25" height="36.25" fill="#7569a2"/><rect x="833.75" y="290" width="36.25" height="36.25" fill="#f3cfef"/><rect x="797.5" y="326.25" width="36.25" height="36.25" fill="#df81d4"/><rect x="0" y="362.5" width="72.5" height="72.5" fill="#ffffff"/><rect x="0" y="362.5" width="36.25" height="36.25" fill="#796ca4"/><rect x="36.25" y="362.5" width="36.25" height="36.25" fill="#2f1c72"/><rect x="0" y="398.75" width="36.25" height="36.25" fill="#d043bf"/><rect x="36.25" y="398.75" width="36.25" height="36.25" fill="#dfdce9"/><rect x="72.5" y="362.5" width="72.5" height="72.5" fill="#ffffff"/><rect x="72.5" y="362.5" width="36.25" height="36.25" fill="#d147c0"/><rect x="108.75" y="362.5" width="36.25" height="36.25" fill="#f4d3f0"/><rect x="72.5" y="398.75" width="36.25" height="36.25" fill="#e6e4ee"/><rect x="108.75" y="398.75" width="36.25" height="36.25" fill="#fdf5fc"/><rect x="145" y="362.5" width="72.5" height="72.5" fill="#ffffff"/><rect x="145" y="362.5" width="36.25" height="36.25" fill="#e38ed8"/><rect x="181.25" y="362.5" width="36.25" height="36.25" fill="#fae3f7"/><rect x="145" y="398.75" width="36.25" height="36.25" fill="#e9a7e1"/><rect x="181.25" y="398.75" width="36.25" height="36.25" fill="#f5c8ee"/><rect x="217.5" y="362.5" width="72.5" height="72.5" fill="#ffffff"/><rect x="217.5" y="362.5" width="36.25" height="36.25" fill="#f5f4f8"/><rect x="253.75" y="362.5" width="36.25" height="36.25" fill="#685a98"/><rect x="217.5" y="398.75" width="36.25" height="36.25" fill="#eea6e4"/><rect x="253.75" y="398.75" width="36.25" height="36.25" fill="#e493da"/><rect x="290" y="362.5" width="72.5" height="72.5" fill="#ffffff"/><rect x="290" y="362.5" width="36.25" height="36.25" fill="#796da4"/><rect x="326.25" y="362.5" width="36.25" height="36.25" fill="#f8d9f3"/><rect x="290" y="398.75" width="36.25" height="36.25" fill="#fbebf9"/><rect x="326.25" y="398.75" width="36.25" height="36.25" fill="#f6d0f0"/><rect x="362.5" y="362.5" width="72.5" height="72.5" fill="#ffffff"/><rect x="362.5" y="362.5" width="36.25" height="36.25" fill="#e9a7e1"/><rect x="398.75" y="362.5" width="36.25" height="36.25" fill="#e9a9e2"/><rect x="362.5" y="398.75" width="36.25" height="36.25" fill="#e9a8e1"/><rect x="398.75" y="398.75" width="36.25" height="36.25" fill="#cbc7dc"/><rect x="435" y="362.5" width="72.5" height="72.5" fill="#ffffff"/><rect x="435" y="362.5" width="36.25" height="36.25" fill="#cf41be"/><rect x="471.25" y="362.5" width="36.25" height="36.25" fill="#352376"/><rect x="435" y="398.75" width="36.25" height="36.25" fill="#ec9be0"/><rect x="471.25" y="398.75" width="36.25" height="36.25" fill="#eface5"/><rect x="507.5" y="362.5" width="72.5" height="72.5" fill="#ffffff"/><rect x="507.5" y="362.5" width="36.25" height="36.25" fill="#dbd8e7"/><rect x="543.75" y="362.5" width="36.25" height="36.25" fill="#f0c2ea"/><rect x="507.5" y="398.75" width="36.25" height="36.25" fill="#9288b5"/><rect x="543.75" y="398.75" width="36.25" height="36.25" fill="#d4d0e2"/><rect x="580" y="362.5" width="72.5" height="72.5" fill="#ffffff"/><rect x="580" y="362.5" width="36.25" height="36.25" fill="#e599dc"/><rect x="616.25" y="362.5" width="36.25" height="36.25" fill="#da6ccd"/><rect x="580" y="398.75" width="36.25" height="36.25" fill="#efbfe9"/><rect x="616.25" y="398.75" width="36.25" height="36.25" fill="#f9def5"/><rect x="652.5" y="362.5" width="72.5" height="72.5" fill="#ffffff"/><rect x="652.5" y="362.5" width="36.25" height="36.25" fill="#fceffa"/><rect x="688.75" y="362.5" width="36.25" height="36.25" fill="#fcf3fb"/><rect x="652.5" y="398.75" width="36.25" height="36.25" fill="#e8a1df"/><rect x="688.75" y="398.75" width="36.25" height="36.25" fill="#f8d8f3"/><rect x="725" y="362.5" width="72.5" height="72.5" fill="#ffffff"/><rect x="725" y="362.5" width="36.25" height="36.25" fill="#f7d6f2"/><rect x="761.25" y="362.5" width="36.25" height="36.25" fill="#fceffa"/><rect x="725" y="398.75" width="36.25" height="36.25" fill="#ecb4e5"/><rect x="761.25" y="398.75" width="36.25" height="36.25" fill="#f2cbed"/><rect x="797.5" y="362.5" width="72.5" height="72.5" fill="#ffffff"/><rect x="797.5" y="362.5" width="36.25" height="36.25" fill="#faeaf8"/><rect x="833.75" y="362.5" width="36.25" height="36.25" fill="#de7ad2"/><rect x="797.5" y="398.75" width="36.25" height="36.25" fill="#faecf9"/><rect x="833.75" y="398.75" width="36.25" height="36.25" fill="#f3cfee"/></g></svg>