<?xml version="1.0" standalone="no"?><svg xmlns:xlink="http://www.w3.org/1999/xlink" xmlns="http://www.w3.org/2000/svg" viewBox="0 0 1000 600.0043902793727" preserveAspectRatio="xMaxYMax slice"><g transform="scale(1.3719623039637363)"><rect x="0" y="0" width="728.8883333333332" height="510.2218333333333" fill="#ffffff"/><rect x="0" y="0" width="72.89" height="72.89" fill="#751bbe"/><path d="M 0 0 A 72.89 72.89 0 0 1  72.89 72.89 L 0 0 A 72.89 72.89 0 0 0 72.89 72.89" fill="#6c7c83"/><rect x="72.88883333333332" y="0" width="72.88883333333332" height="72.88883333333332" fill="#ffffff"/><rect x="72.89" y="0" width="36.44" height="36.44" fill="#d1b3ea"/><path d="M 72.89 0 A 36.44 36.44 0 0 1 109.33 36.44 L 72.89 36.44" fill="#697980"/><rect x="109.33" y="0" width="36.44" height="36.44" fill="#e5d4f3"/><path d="M 109.33 36.44 A 36.44 36.44 0 0 1  145.76999999999998 0 L 145.76999999999998 36.44" fill="#0a2530"/><rect x="72.89" y="36.44" width="36.44" height="36.44" fill="#253d47"/><path d="M 72.89 72.88 A 36.44 36.44 0 0 0 109.33 36.44 L 72.89 36.44" fill="#d17bff"/><rect x="109.33" y="36.44" width="36.44" height="36.44" fill="#3e535c"/><path d="M 109.33 36.44 A 36.44 36.44 0 0 0 145.76999999999998 72.88 L 145.76999999999998 36.44" fill="#07222e"/><rect x="145.78" y="0" width="72.89" height="72.89" fill="#b484dc"/><polygon points="218.67000000000002,0 218.67000000000002,72.89 145.78,72.89" fill="#fefcff"/><rect x="218.66649999999998" y="0" width="72.88883333333332" height="72.88883333333332" fill="#ffffff"/><rect x="218.67" y="0" width="36.44" height="36.44" fill="#fafbfb"/><path d="M 218.67 36.44 A 36.44 36.44 0 0 1  255.10999999999999 0 L 255.10999999999999 36.44" fill="#7923c1"/><rect x="255.11" y="0" width="36.44" height="36.44" fill="#c1c8cb"/><path d="M 255.11 0 A 36.44 36.44 0 0 1 291.55 36.44 L 255.11 36.44" fill="#f2eaf9"/><rect x="218.67" y="36.44" width="36.44" height="36.44" fill="#8535c6"/><path d="M 218.67 36.44 A 36.44 36.44 0 0 0 255.10999999999999 72.88 L 255.10999999999999 36.44" fill="#dcc6ef"/><rect x="255.11" y="36.44" width="36.44" height="36.44" fill="#7217bd"/><path d="M 255.11 72.88 A 36.44 36.44 0 0 0 291.55 36.44 L 255.11 36.44" fill="#acb5b9"/><rect x="291.56" y="0" width="72.89" height="72.89" fill="#77858c"/><polygon points="291.56,0 364.45,0 364.45,72.89" fill="#b88ade"/><rect x="364.4441666666666" y="0" width="72.88883333333332" height="72.88883333333332" fill="#ffffff"/><rect x="364.44" y="0" width="36.44" height="36.44" fill="#d78dff"/><path d="M 364.44 36.44 A 36.44 36.44 0 0 1 400.88 0 L 400.88 9.11 A 27.33 27.33 0 0 0 373.55 36.44" fill="#d380ff"/><rect x="400.89" y="0" width="36.44" height="36.44" fill="#425760"/><path d="M 400.89 0 A 36.44 36.44 0 0 1 437.33 36.44 L 428.21999999999997 36.44 A 27.33 27.33 0 0 0 400.89 9.11" fill="#db96ff"/><rect x="364.44" y="36.44" width="36.44" height="36.44" fill="#e9c0ff"/><path d="M 364.44 36.44 A 36.44 36.44 0 0 0 400.88 72.88 L 400.88 63.769999999999996 A 27.33 27.33 0 0 1 373.55 36.44" fill="#cd6fff"/><rect x="400.89" y="36.44" width="36.44" height="36.44" fill="#88959b"/><path d="M 400.89 72.88 A 36.44 36.44 0 0 0 437.33 36.44 L 428.21999999999997 36.44 A 27.33 27.33 0 0 1 400.89 63.769999999999996" fill="#aa72d7"/><rect x="437.33299999999997" y="0" width="72.88883333333332" height="72.88883333333332" fill="#ffffff"/><rect x="437.33" y="0" width="36.44" height="36.44" fill="#b585dc"/><circle cx="455.54999999999995" cy="18.22" r="18.22" fill="#334953"/><rect x="473.78" y="0" width="36.44" height="36.44" fill="#d17bff"/><rect x="473.78" y="0" width="36.44" height="36.44" fill="#66777e"/><rect x="437.33" y="36.44" width="36.44" height="36.44" fill="#c1c8cb"/><circle cx="455.54999999999995" cy="54.66" r="18.22" fill="#50636b"/><rect x="473.78" y="36.44" width="36.44" height="36.44" fill="#c352ff"/><rect x="473.78" y="36.44" width="36.44" height="36.44" fill="#8536c6"/><rect x="510.22" y="0" width="72.89" height="72.89" fill="#18313c"/><path d="M 510.22 0 A 72.89 72.89 0 0 1 583.11 72.89 L 510.22 72.89" fill="#ba38ff"/><rect x="583.11" y="0" width="72.89" height="72.89" fill="#eadcf5"/><polygon points="583.11,0 656,0 583.11,72.89" fill="#da94ff"/><rect x="655.9994999999999" y="0" width="72.88883333333332" height="72.88883333333332" fill="#ffffff"/><rect x="656" y="0" width="36.44" height="36.44" fill="#dfcaf0"/><path d="M 656 36.44 A 36.44 36.44 0 0 0 692.44 0 L 656 0" fill="#d077ff"/><rect x="692.44" y="0" width="36.44" height="36.44" fill="#6806b8"/><path d="M 692.44 0 A 36.44 36.44 0 0 0 728.8800000000001 36.44 L 728.8800000000001 0" fill="#102a35"/><rect x="656" y="36.44" width="36.44" height="36.44" fill="#a66cd5"/><path d="M 656 36.44 A 36.44 36.44 0 0 1 692.44 72.88 L 656 72.88" fill="#c9cfd2"/><rect x="692.44" y="36.44" width="36.44" height="36.44" fill="#e7d7f4"/><path d="M 692.44 72.88 A 36.44 36.44 0 0 1  728.8800000000001 36.44 L 728.8800000000001 72.88" fill="#8e9aa0"/><rect x="0" y="72.88883333333332" width="72.88883333333332" height="72.88883333333332" fill="#ffffff"/><rect x="0" y="72.89" width="36.44" height="36.44" fill="#bf48ff"/><polygon points="36.44,72.89 36.44,109.33 0,109.33" fill="#243b46"/><rect x="36.44" y="72.89" width="36.44" height="36.44" fill="#e0ccf1"/><polygon points="36.44,72.89 72.88,72.89 36.44,109.33" fill="#0a2531"/><rect x="0" y="109.33" width="36.44" height="36.44" fill="#d380ff"/><polygon points="0,109.33 36.44,109.33 36.44,145.76999999999998" fill="#d68aff"/><rect x="36.44" y="109.33" width="36.44" height="36.44" fill="#cbd0d3"/><polygon points="36.44,109.33 72.88,145.76999999999998 36.44,145.76999999999998" fill="#e5b3ff"/><rect x="72.89" y="72.89" width="72.89" height="72.89" fill="#e5d3f3"/><rect x="72.89" y="72.89" width="72.89" height="72.89" fill="#c49ee3"/><rect x="145.78" y="72.89" width="72.89" height="72.89" fill="#f5eefa"/><path d="M 145.78 145.78 A 72.89 72.89 0 0 1  218.67000000000002 72.89 L 218.67000000000002 145.78" fill="#b936ff"/><rect x="218.66649999999998" y="72.88883333333332" width="72.88883333333332" height="72.88883333333332" fill="#ffffff"/><rect x="218.67" y="72.89" width="36.44" height="36.44" fill="#edcbff"/><circle cx="236.89" cy="91.11" r="18.22" fill="#a7b1b5"/><rect x="255.11" y="72.89" width="36.44" height="36.44" fill="#4f636b"/><rect x="255.11" y="72.89" width="36.44" height="36.44" fill="#ccabe7"/><rect x="218.67" y="109.33" width="36.44" height="36.44" fill="#c04bff"/><circle cx="236.89" cy="127.55" r="18.22" fill="#e4d3f3"/><rect x="255.11" y="109.33" width="36.44" height="36.44" fill="#384e57"/><rect x="255.11" y="109.33" width="36.44" height="36.44" fill="#ab74d8"/><rect x="291.5553333333333" y="72.88883333333332" width="72.88883333333332" height="72.88883333333332" fill="#ffffff"/><rect x="291.56" y="72.89" width="36.44" height="36.44" fill="#893dc8"/><polygon points="328,72.89 328,109.33 291.56,109.33" fill="#b17fdb"/><rect x="328" y="72.89" width="36.44" height="36.44" fill="#6e7e85"/><polygon points="328,72.89 364.44,72.89 328,109.33" fill="#6704b8"/><rect x="291.56" y="109.33" width="36.44" height="36.44" fill="#c75dff"/><polygon points="291.56,109.33 328,109.33 328,145.76999999999998" fill="#d6bcec"/><rect x="328" y="109.33" width="36.44" height="36.44" fill="#949fa4"/><polygon points="328,109.33 364.44,145.76999999999998 328,145.76999999999998" fill="#a469d4"/><rect x="364.44" y="72.89" width="72.89" height="72.89" fill="#f5effa"/><polygon points="364.44,72.89 437.33,72.89 364.44,145.78" fill="#a469d5"/><rect x="437.33299999999997" y="72.88883333333332" width="72.88883333333332" height="72.88883333333332" fill="#ffffff"/><rect x="437.33" y="72.89" width="36.44" height="36.44" fill="#c049ff"/><path d="M 437.33 72.89 A 36.44 36.44 0 0 0 473.77 109.33 L 473.77 72.89" fill="#bd42ff"/><rect x="473.78" y="72.89" width="36.44" height="36.44" fill="#08232e"/><path d="M 473.78 109.33 A 36.44 36.44 0 0 0 510.21999999999997 72.89 L 473.78 72.89" fill="#f2d9ff"/><rect x="437.33" y="109.33" width="36.44" height="36.44" fill="#1a333e"/><path d="M 437.33 145.76999999999998 A 36.44 36.44 0 0 1  473.77 109.33 L 473.77 145.76999999999998" fill="#475b64"/><rect x="473.78" y="109.33" width="36.44" height="36.44" fill="#cd70ff"/><path d="M 473.78 109.33 A 36.44 36.44 0 0 1 510.21999999999997 145.76999999999998 L 473.78 145.76999999999998" fill="#65757d"/><rect x="510.2218333333333" y="72.88883333333332" width="72.88883333333332" height="72.88883333333332" fill="#ffffff"/><rect x="510.22" y="72.89" width="36.44" height="36.44" fill="#2c434d"/><polygon points="546.6600000000001,72.89 546.6600000000001,109.33 510.22,109.33" fill="#db99ff"/><rect x="546.67" y="72.89" width="36.44" height="36.44" fill="#d8dcde"/><polygon points="546.67,72.89 583.1099999999999,72.89 546.67,109.33" fill="#d688ff"/><rect x="510.22" y="109.33" width="36.44" height="36.44" fill="#07222e"/><polygon points="510.22,109.33 546.6600000000001,109.33 546.6600000000001,145.76999999999998" fill="#cdace8"/><rect x="546.67" y="109.33" width="36.44" height="36.44" fill="#cba8e6"/><polygon points="546.67,109.33 583.1099999999999,145.76999999999998 546.67,145.76999999999998" fill="#b98cde"/><rect x="583.11" y="72.89" width="72.89" height="72.89" fill="#c4cacd"/><polygon points="583.11,72.89 656,145.78 583.11,145.78" fill="#d7beed"/><rect x="656" y="72.89" width="72.89" height="72.89" fill="#6501b7"/><rect x="656" y="72.89" width="72.89" height="72.89" fill="#334953"/><rect x="0" y="145.77766666666665" width="72.88883333333332" height="72.88883333333332" fill="#ffffff"/><rect x="0" y="145.78" width="36.44" height="36.44" fill="#d1b4ea"/><circle cx="18.22" cy="164" r="18.22" fill="#eeceff"/><rect x="36.44" y="145.78" width="36.44" height="36.44" fill="#53656e"/><rect x="36.44" y="145.78" width="36.44" height="36.44" fill="#bc90e0"/><rect x="0" y="182.22" width="36.44" height="36.44" fill="#63747b"/><circle cx="18.22" cy="200.44" r="18.22" fill="#b9c1c4"/><rect x="36.44" y="182.22" width="36.44" height="36.44" fill="#eac2ff"/><rect x="36.44" y="182.22" width="36.44" height="36.44" fill="#c04aff"/><rect x="72.88883333333332" y="145.77766666666665" width="72.88883333333332" height="72.88883333333332" fill="#ffffff"/><rect x="72.89" y="145.78" width="36.44" height="36.44" fill="#fbf2ff"/><polygon points="109.33,145.78 109.33,182.22 72.89,182.22" fill="#edccff"/><rect x="109.33" y="145.78" width="36.44" height="36.44" fill="#ddc7ef"/><polygon points="109.33,145.78 145.76999999999998,182.22 109.33,182.22" fill="#893cc8"/><rect x="72.89" y="182.22" width="36.44" height="36.44" fill="#f1d6ff"/><polygon points="72.89,182.22 109.33,182.22 72.89,218.66" fill="#cc6bff"/><rect x="109.33" y="182.22" width="36.44" height="36.44" fill="#dac1ee"/><polygon points="109.33,182.22 145.76999999999998,182.22 145.76999999999998,218.66" fill="#dc9bff"/><rect x="145.77766666666665" y="145.77766666666665" width="72.88883333333332" height="72.88883333333332" fill="#ffffff"/><rect x="145.78" y="145.78" width="36.44" height="36.44" fill="#f6e7ff"/><polygon points="182.22,145.78 182.22,182.22 145.78,182.22" fill="#be95e1"/><rect x="182.22" y="145.78" width="36.44" height="36.44" fill="#eeceff"/><polygon points="182.22,145.78 218.66,182.22 182.22,182.22" fill="#e5b5ff"/><rect x="145.78" y="182.22" width="36.44" height="36.44" fill="#bd40ff"/><polygon points="145.78,182.22 182.22,182.22 182.22,218.66" fill="#0c2632"/><rect x="182.22" y="182.22" width="36.44" height="36.44" fill="#52656d"/><polygon points="182.22,182.22 218.66,182.22 182.22,218.66" fill="#495d66"/><rect x="218.67" y="145.78" width="72.89" height="72.89" fill="#ad78d9"/><path d="M 218.67 145.78 A 72.89 72.89 0 0 0 291.56 218.67000000000002 L 291.56 145.78" fill="#d5b9eb"/><rect x="291.56" y="145.78" width="72.89" height="72.89" fill="#a266d4"/><polygon points="291.56,145.78 364.45,218.67000000000002 291.56,218.67000000000002" fill="#d5b9eb"/><rect x="364.44" y="145.78" width="72.89" height="72.89" fill="#d587ff"/><polygon points="364.44,145.78 437.33,145.78 364.44,218.67000000000002" fill="#b584dc"/><rect x="437.33299999999997" y="145.77766666666665" width="72.88883333333332" height="72.88883333333332" fill="#ffffff"/><rect x="437.33" y="145.78" width="36.44" height="36.44" fill="#dac3ee"/><polygon points="473.77,145.78 473.77,182.22 437.33,182.22" fill="#d5b9eb"/><rect x="473.78" y="145.78" width="36.44" height="36.44" fill="#e1a8ff"/><polygon points="473.78,145.78 510.21999999999997,182.22 473.78,182.22" fill="#d78dff"/><rect x="437.33" y="182.22" width="36.44" height="36.44" fill="#cc6bff"/><polygon points="437.33,182.22 473.77,182.22 437.33,218.66" fill="#607179"/><rect x="473.78" y="182.22" width="36.44" height="36.44" fill="#87949a"/><polygon points="473.78,182.22 510.21999999999997,182.22 510.21999999999997,218.66" fill="#c8a4e5"/><rect x="510.2218333333333" y="145.77766666666665" width="72.88883333333332" height="72.88883333333332" fill="#ffffff"/><rect x="510.22" y="145.78" width="36.44" height="36.44" fill="#e4d2f2"/><polygon points="546.6600000000001,145.78 546.6600000000001,182.22 510.22,182.22" fill="#e4e7e8"/><rect x="546.67" y="145.78" width="36.44" height="36.44" fill="#c559ff"/><polygon points="546.67,145.78 583.1099999999999,182.22 546.67,182.22" fill="#f5e3ff"/><rect x="510.22" y="182.22" width="36.44" height="36.44" fill="#132d38"/><polygon points="510.22,182.22 546.6600000000001,182.22 546.6600000000001,218.66" fill="#5d6f77"/><rect x="546.67" y="182.22" width="36.44" height="36.44" fill="#9753ce"/><polygon points="546.67,182.22 583.1099999999999,182.22 546.67,218.66" fill="#fafbfb"/><rect x="583.11" y="145.78" width="72.89" height="72.89" fill="#fcf7ff"/><path d="M 583.11 218.67000000000002 A 72.89 72.89 0 0 1  656 145.78 L 656 218.67000000000002" fill="#152e3a"/><rect x="655.9994999999999" y="145.77766666666665" width="72.88883333333332" height="72.88883333333332" fill="#ffffff"/><rect x="656" y="145.78" width="36.44" height="36.44" fill="#d992ff"/><path d="M 656 145.78 A 36.44 36.44 0 0 1 692.44 182.22 L 656 182.22" fill="#efd1ff"/><rect x="692.44" y="145.78" width="36.44" height="36.44" fill="#bbc2c5"/><path d="M 692.44 182.22 A 36.44 36.44 0 0 1  728.8800000000001 145.78 L 728.8800000000001 182.22" fill="#e2cef1"/><rect x="656" y="182.22" width="36.44" height="36.44" fill="#c1c8cb"/><path d="M 656 218.66 A 36.44 36.44 0 0 0 692.44 182.22 L 656 182.22" fill="#8b40c9"/><rect x="692.44" y="182.22" width="36.44" height="36.44" fill="#e9c0ff"/><path d="M 692.44 182.22 A 36.44 36.44 0 0 0 728.8800000000001 218.66 L 728.8800000000001 182.22" fill="#f9efff"/><rect x="0" y="218.67" width="72.89" height="72.89" fill="#b8c0c3"/><polygon points="0,218.67 72.89,218.67 72.89,291.56" fill="#c964ff"/><rect x="72.89" y="218.67" width="72.89" height="72.89" fill="#a266d4"/><path d="M 72.89 218.67 A 72.89 72.89 0 0 0 145.78 291.56 L 145.78 218.67" fill="#d0b2e9"/><rect x="145.77766666666665" y="218.66649999999998" width="72.88883333333332" height="72.88883333333332" fill="#ffffff"/><rect x="145.78" y="218.67" width="36.44" height="36.44" fill="#162f3a"/><path d="M 145.78 218.67 A 36.44 36.44 0 0 1 182.22 255.10999999999999 L 145.78 255.10999999999999" fill="#6c0dba"/><rect x="182.22" y="218.67" width="36.44" height="36.44" fill="#ae79d9"/><path d="M 182.22 255.10999999999999 A 36.44 36.44 0 0 1  218.66 218.67 L 218.66 255.10999999999999" fill="#19323d"/><rect x="145.78" y="255.11" width="36.44" height="36.44" fill="#c6a1e4"/><path d="M 145.78 291.55 A 36.44 36.44 0 0 0 182.22 255.11 L 145.78 255.11" fill="#e5b6ff"/><rect x="182.22" y="255.11" width="36.44" height="36.44" fill="#d3b7eb"/><path d="M 182.22 255.11 A 36.44 36.44 0 0 0 218.66 291.55 L 218.66 255.11" fill="#859298"/><rect x="218.67" y="218.67" width="72.89" height="72.89" fill="#d8bfed"/><rect x="218.67" y="218.67" width="72.89" height="72.89" fill="#ba8ddf"/><rect x="291.5553333333333" y="218.66649999999998" width="72.88883333333332" height="72.88883333333332" fill="#ffffff"/><rect x="291.56" y="218.67" width="36.44" height="36.44" fill="#cd70ff"/><path d="M 291.56 218.67 A 36.44 36.44 0 0 0 328 255.10999999999999 L 328 218.67" fill="#dfa4ff"/><rect x="328" y="218.67" width="36.44" height="36.44" fill="#e9c1ff"/><path d="M 328 255.10999999999999 A 36.44 36.44 0 0 0 364.44 218.67 L 328 218.67" fill="#6d0ebb"/><rect x="291.56" y="255.11" width="36.44" height="36.44" fill="#213944"/><path d="M 291.56 291.55 A 36.44 36.44 0 0 1  328 255.11 L 328 291.55" fill="#b937ff"/><rect x="328" y="255.11" width="36.44" height="36.44" fill="#9ca7ac"/><path d="M 328 255.11 A 36.44 36.44 0 0 1 364.44 291.55 L 328 291.55" fill="#f9efff"/><rect x="364.44" y="218.67" width="72.89" height="72.89" fill="#bc91e0"/><rect x="364.44" y="218.67" width="72.89" height="72.89" fill="#cd6fff"/><rect x="437.33" y="218.67" width="72.89" height="72.89" fill="#b584dc"/><path d="M 437.33 218.67 A 72.89 72.89 0 0 0 510.21999999999997 291.56 L 510.21999999999997 218.67" fill="#fbf8fd"/><rect x="510.2218333333333" y="218.66649999999998" width="72.88883333333332" height="72.88883333333332" fill="#ffffff"/><rect x="510.22" y="218.67" width="36.44" height="36.44" fill="#afb8bc"/><polygon points="546.6600000000001,218.67 546.6600000000001,255.10999999999999 510.22,255.10999999999999" fill="#bd40ff"/><rect x="546.67" y="218.67" width="36.44" height="36.44" fill="#dd9cff"/><polygon points="546.67,218.67 583.1099999999999,218.67 546.67,255.10999999999999" fill="#771fbf"/><rect x="510.22" y="255.11" width="36.44" height="36.44" fill="#a4aeb2"/><polygon points="510.22,255.11 546.6600000000001,255.11 546.6600000000001,291.55" fill="#929ea3"/><rect x="546.67" y="255.11" width="36.44" height="36.44" fill="#8434c5"/><polygon points="546.67,255.11 583.1099999999999,291.55 546.67,291.55" fill="#cfb0e9"/><rect x="583.11" y="218.67" width="72.89" height="72.89" fill="#7922c0"/><rect x="583.11" y="218.67" width="72.89" height="72.89" fill="#828f95"/><rect x="656" y="218.67" width="72.89" height="72.89" fill="#8230c4"/><path d="M 656 218.67 A 72.89 72.89 0 0 0 728.89 291.56 L 728.89 218.67" fill="#dec8ef"/><rect x="0" y="291.5553333333333" width="72.88883333333332" height="72.88883333333332" fill="#ffffff"/><rect x="0" y="291.56" width="36.44" height="36.44" fill="#94a0a5"/><polygon points="36.44,291.56 36.44,328 0,328" fill="#9855cf"/><rect x="36.44" y="291.56" width="36.44" height="36.44" fill="#092430"/><polygon points="36.44,291.56 72.88,328 36.44,328" fill="#fcf7ff"/><rect x="0" y="328" width="36.44" height="36.44" fill="#aeb7bb"/><polygon points="0,328 36.44,328 0,364.44" fill="#c3c9cc"/><rect x="36.44" y="328" width="36.44" height="36.44" fill="#9a59d0"/><polygon points="36.44,328 72.88,328 72.88,364.44" fill="#f0f2f3"/><rect x="72.88883333333332" y="291.5553333333333" width="72.88883333333332" height="72.88883333333332" fill="#ffffff"/><rect x="72.89" y="291.56" width="36.44" height="36.44" fill="#5e6f77"/><path d="M 72.89 291.56 A 36.44 36.44 0 0 1 109.33 328 L 72.89 328" fill="#9ba6aa"/><rect x="109.33" y="291.56" width="36.44" height="36.44" fill="#e7eaeb"/><path d="M 109.33 328 A 36.44 36.44 0 0 1  145.76999999999998 291.56 L 145.76999999999998 328" fill="#eac4ff"/><rect x="72.89" y="328" width="36.44" height="36.44" fill="#c558ff"/><path d="M 72.89 364.44 A 36.44 36.44 0 0 0 109.33 328 L 72.89 328" fill="#f8ebff"/><rect x="109.33" y="328" width="36.44" height="36.44" fill="#e5b4ff"/><path d="M 109.33 328 A 36.44 36.44 0 0 0 145.76999999999998 364.44 L 145.76999999999998 328" fill="#ba3aff"/><rect x="145.78" y="291.56" width="72.89" height="72.89" fill="#c04aff"/><polygon points="145.78,291.56 218.67000000000002,291.56 218.67000000000002,364.45" fill="#5b6c74"/><rect x="218.67" y="291.56" width="72.89" height="72.89" fill="#334953"/><path d="M 218.67 364.45 A 72.89 72.89 0 0 0 291.56 291.56 L 218.67 291.56" fill="#cc6cff"/><rect x="291.5553333333333" y="291.5553333333333" width="72.88883333333332" height="72.88883333333332" fill="#ffffff"/><rect x="291.56" y="291.56" width="36.44" height="36.44" fill="#d993ff"/><path d="M 291.56 328 A 36.44 36.44 0 0 1  328 291.56 L 328 328" fill="#09232f"/><rect x="328" y="291.56" width="36.44" height="36.44" fill="#c39de3"/><path d="M 328 291.56 A 36.44 36.44 0 0 1 364.44 328 L 328 328" fill="#d17cff"/><rect x="291.56" y="328" width="36.44" height="36.44" fill="#6603b8"/><path d="M 291.56 328 A 36.44 36.44 0 0 0 328 364.44 L 328 328" fill="#495d66"/><rect x="328" y="328" width="36.44" height="36.44" fill="#ddc7ef"/><path d="M 328 364.44 A 36.44 36.44 0 0 0 364.44 328 L 328 328" fill="#41555e"/><rect x="364.4441666666666" y="291.5553333333333" width="72.88883333333332" height="72.88883333333332" fill="#ffffff"/><rect x="364.44" y="291.56" width="36.44" height="36.44" fill="#d3d8da"/><polygon points="400.88,291.56 400.88,328 364.44,328" fill="#edcdff"/><rect x="400.89" y="291.56" width="36.44" height="36.44" fill="#c7a3e5"/><polygon points="400.89,291.56 437.33,328 400.89,328" fill="#435760"/><rect x="364.44" y="328" width="36.44" height="36.44" fill="#d585ff"/><polygon points="364.44,328 400.88,328 364.44,364.44" fill="#74838a"/><rect x="400.89" y="328" width="36.44" height="36.44" fill="#cdd3d5"/><polygon points="400.89,328 437.33,328 437.33,364.44" fill="#0e2834"/><rect x="437.33" y="291.56" width="72.89" height="72.89" fill="#d991ff"/><path d="M 437.33 364.45 A 72.89 72.89 0 0 1  510.21999999999997 291.56 L 437.33 364.45 A 72.89 72.89 0 0 0 510.21999999999997 291.56" fill="#c353ff"/><rect x="510.2218333333333" y="291.5553333333333" width="72.88883333333332" height="72.88883333333332" fill="#ffffff"/><rect x="510.22" y="291.56" width="36.44" height="36.44" fill="#bd41ff"/><polygon points="546.6600000000001,291.56 546.6600000000001,328 510.22,328" fill="#a66dd5"/><rect x="546.67" y="291.56" width="36.44" height="36.44" fill="#faf0ff"/><polygon points="546.67,291.56 583.1099999999999,328 546.67,328" fill="#9a58d0"/><rect x="510.22" y="328" width="36.44" height="36.44" fill="#18313c"/><polygon points="510.22,328 546.6600000000001,328 510.22,364.44" fill="#6a7a81"/><rect x="546.67" y="328" width="36.44" height="36.44" fill="#455962"/><polygon points="546.67,328 583.1099999999999,328 583.1099999999999,364.44" fill="#d9c0ed"/><rect x="583.11" y="291.56" width="72.89" height="72.89" fill="#883ac7"/><rect x="583.11" y="291.56" width="72.89" height="72.89" fill="#f5f6f6"/><rect x="656" y="291.56" width="72.89" height="72.89" fill="#fdfbfe"/><rect x="656" y="291.56" width="72.89" height="72.89" fill="#ebdef6"/><rect x="0" y="364.44" width="72.89" height="72.89" fill="#e9ebed"/><polygon points="0,364.44 72.89,364.44 72.89,437.33" fill="#b3bbbf"/><rect x="72.88883333333332" y="364.4441666666666" width="72.88883333333332" height="72.88883333333332" fill="#ffffff"/><rect x="72.89" y="364.44" width="36.44" height="36.44" fill="#e3aeff"/><polygon points="109.33,364.44 109.33,400.88 72.89,400.88" fill="#203843"/><rect x="109.33" y="364.44" width="36.44" height="36.44" fill="#f3deff"/><polygon points="109.33,364.44 145.76999999999998,400.88 109.33,400.88" fill="#c9ced1"/><rect x="72.89" y="400.89" width="36.44" height="36.44" fill="#d585ff"/><polygon points="72.89,400.89 109.33,400.89 109.33,437.33" fill="#8d43ca"/><rect x="109.33" y="400.89" width="36.44" height="36.44" fill="#f6e4ff"/><polygon points="109.33,400.89 145.76999999999998,400.89 109.33,437.33" fill="#e3e6e8"/><rect x="145.78" y="364.44" width="72.89" height="72.89" fill="#0c2732"/><rect x="145.78" y="364.44" width="72.89" height="72.89" fill="#e3afff"/><rect x="218.66649999999998" y="364.4441666666666" width="72.88883333333332" height="72.88883333333332" fill="#ffffff"/><rect x="218.67" y="364.44" width="36.44" height="36.44" fill="#e1a9ff"/><path d="M 218.67 400.88 A 36.44 36.44 0 0 1 255.10999999999999 364.44 L 255.10999999999999 373.55 A 27.33 27.33 0 0 0 227.77999999999997 400.88" fill="#f3ebf9"/><rect x="255.11" y="364.44" width="36.44" height="36.44" fill="#8f9ba1"/><path d="M 255.11 364.44 A 36.44 36.44 0 0 1 291.55 400.88 L 282.44 400.88 A 27.33 27.33 0 0 0 255.11 373.55" fill="#dfe2e4"/><rect x="218.67" y="400.89" width="36.44" height="36.44" fill="#c963ff"/><path d="M 218.67 400.89 A 36.44 36.44 0 0 0 255.10999999999999 437.33 L 255.10999999999999 428.21999999999997 A 27.33 27.33 0 0 1 227.77999999999997 400.89" fill="#112b36"/><rect x="255.11" y="400.89" width="36.44" height="36.44" fill="#9550cd"/><path d="M 255.11 437.33 A 36.44 36.44 0 0 0 291.55 400.89 L 282.44 400.89 A 27.33 27.33 0 0 1 255.11 428.21999999999997" fill="#1c3540"/><rect x="291.5553333333333" y="364.4441666666666" width="72.88883333333332" height="72.88883333333332" fill="#ffffff"/><rect x="291.56" y="364.44" width="36.44" height="36.44" fill="#f5f6f6"/><path d="M 291.56 400.88 A 36.44 36.44 0 0 1 328 364.44 L 328 373.55 A 27.33 27.33 0 0 0 300.67 400.88" fill="#741abe"/><rect x="328" y="364.44" width="36.44" height="36.44" fill="#c04aff"/><path d="M 328 364.44 A 36.44 36.44 0 0 1 364.44 400.88 L 355.33 400.88 A 27.33 27.33 0 0 0 328 373.55" fill="#e0ccf1"/><rect x="291.56" y="400.89" width="36.44" height="36.44" fill="#c75eff"/><path d="M 291.56 400.89 A 36.44 36.44 0 0 0 328 437.33 L 328 428.21999999999997 A 27.33 27.33 0 0 1 300.67 400.89" fill="#dd9dff"/><rect x="328" y="400.89" width="36.44" height="36.44" fill="#a7b1b5"/><path d="M 328 437.33 A 36.44 36.44 0 0 0 364.44 400.89 L 355.33 400.89 A 27.33 27.33 0 0 1 328 428.21999999999997" fill="#909ca2"/><rect x="364.4441666666666" y="364.4441666666666" width="72.88883333333332" height="72.88883333333332" fill="#ffffff"/><rect x="364.44" y="364.44" width="36.44" height="36.44" fill="#6602b7"/><path d="M 364.44 400.88 A 36.44 36.44 0 0 0 400.88 364.44 L 364.44 364.44" fill="#b6bec2"/><rect x="400.89" y="364.44" width="36.44" height="36.44" fill="#e3e6e7"/><path d="M 400.89 364.44 A 36.44 36.44 0 0 0 437.33 400.88 L 437.33 364.44" fill="#f6f0fb"/><rect x="364.44" y="400.89" width="36.44" height="36.44" fill="#b833ff"/><path d="M 364.44 400.89 A 36.44 36.44 0 0 1 400.88 437.33 L 364.44 437.33" fill="#ca68ff"/><rect x="400.89" y="400.89" width="36.44" height="36.44" fill="#bd43ff"/><path d="M 400.89 437.33 A 36.44 36.44 0 0 1  437.33 400.89 L 437.33 437.33" fill="#db98ff"/><rect x="437.33" y="364.44" width="72.89" height="72.89" fill="#c862ff"/><path d="M 437.33 437.33 A 72.89 72.89 0 0 1  510.21999999999997 364.44 L 437.33 437.33 A 72.89 72.89 0 0 0 510.21999999999997 364.44" fill="#7820c0"/><rect x="510.2218333333333" y="364.4441666666666" width="72.88883333333332" height="72.88883333333332" fill="#ffffff"/><rect x="510.22" y="364.44" width="36.44" height="36.44" fill="#c9a6e6"/><path d="M 510.22 400.88 A 36.44 36.44 0 0 1 546.6600000000001 364.44 L 546.6600000000001 373.55 A 27.33 27.33 0 0 0 519.33 400.88" fill="#9fa9ae"/><rect x="546.67" y="364.44" width="36.44" height="36.44" fill="#b381db"/><path d="M 546.67 364.44 A 36.44 36.44 0 0 1 583.1099999999999 400.88 L 574 400.88 A 27.33 27.33 0 0 0 546.67 373.55" fill="#1f3742"/><rect x="510.22" y="400.89" width="36.44" height="36.44" fill="#435861"/><path d="M 510.22 400.89 A 36.44 36.44 0 0 0 546.6600000000001 437.33 L 546.6600000000001 428.21999999999997 A 27.33 27.33 0 0 1 519.33 400.89" fill="#c75eff"/><rect x="546.67" y="400.89" width="36.44" height="36.44" fill="#98a3a8"/><path d="M 546.67 437.33 A 36.44 36.44 0 0 0 583.1099999999999 400.89 L 574 400.89 A 27.33 27.33 0 0 1 546.67 428.21999999999997" fill="#66777e"/><rect x="583.1106666666666" y="364.4441666666666" width="72.88883333333332" height="72.88883333333332" fill="#ffffff"/><rect x="583.11" y="364.44" width="36.44" height="36.44" fill="#ab75d8"/><path d="M 583.11 400.88 A 36.44 36.44 0 0 0 619.55 364.44 L 583.11 364.44" fill="#a367d4"/><rect x="619.56" y="364.44" width="36.44" height="36.44" fill="#dc9aff"/><path d="M 619.56 364.44 A 36.44 36.44 0 0 0 656 400.88 L 656 364.44" fill="#8230c4"/><rect x="583.11" y="400.89" width="36.44" height="36.44" fill="#d68aff"/><path d="M 583.11 400.89 A 36.44 36.44 0 0 1 619.55 437.33 L 583.11 437.33" fill="#465a63"/><rect x="619.56" y="400.89" width="36.44" height="36.44" fill="#435861"/><path d="M 619.56 437.33 A 36.44 36.44 0 0 1  656 400.89 L 656 437.33" fill="#cfb0e9"/><rect x="655.9994999999999" y="364.4441666666666" width="72.88883333333332" height="72.88883333333332" fill="#ffffff"/><rect x="656" y="364.44" width="36.44" height="36.44" fill="#d079ff"/><circle cx="674.22" cy="382.65999999999997" r="18.22" fill="#c65aff"/><rect x="692.44" y="364.44" width="36.44" height="36.44" fill="#d8dcde"/><rect x="692.44" y="364.44" width="36.44" height="36.44" fill="#41555e"/><rect x="656" y="400.89" width="36.44" height="36.44" fill="#d483ff"/><circle cx="674.22" cy="419.11" r="18.22" fill="#ab75d8"/><rect x="692.44" y="400.89" width="36.44" height="36.44" fill="#1e3741"/><rect x="692.44" y="400.89" width="36.44" height="36.44" fill="#c65cff"/><rect x="0" y="437.33" width="72.89" height="72.89" fill="#c098e2"/><rect x="0" y="437.33" width="72.89" height="72.89" fill="#a6b0b4"/><rect x="72.89" y="437.33" width="72.89" height="72.89" fill="#dc9aff"/><polygon points="72.89,437.33 145.78,437.33 145.78,510.21999999999997" fill="#9d5dd1"/><rect x="145.78" y="437.33" width="72.89" height="72.89" fill="#f7e7ff"/><rect x="145.78" y="437.33" width="72.89" height="72.89" fill="#f6e4ff"/><rect x="218.67" y="437.33" width="72.89" height="72.89" fill="#bf48ff"/><polygon points="218.67,437.33 291.56,437.33 291.56,510.21999999999997" fill="#c04aff"/><rect x="291.56" y="437.33" width="72.89" height="72.89" fill="#bf47ff"/><path d="M 291.56 510.21999999999997 A 72.89 72.89 0 0 1  364.45 437.33 L 291.56 510.21999999999997 A 72.89 72.89 0 0 0 364.45 437.33" fill="#ad78d9"/><rect x="364.44" y="437.33" width="72.89" height="72.89" fill="#d1d6d8"/><rect x="364.44" y="437.33" width="72.89" height="72.89" fill="#c24fff"/><rect x="437.33299999999997" y="437.33299999999997" width="72.88883333333332" height="72.88883333333332" fill="#ffffff"/><rect x="437.33" y="437.33" width="36.44" height="36.44" fill="#233b46"/><polygon points="473.77,437.33 473.77,473.77 437.33,473.77" fill="#7c8a91"/><rect x="473.78" y="437.33" width="36.44" height="36.44" fill="#dea0ff"/><polygon points="473.78,437.33 510.21999999999997,437.33 473.78,473.77" fill="#d2b4ea"/><rect x="437.33" y="473.78" width="36.44" height="36.44" fill="#6c0cba"/><polygon points="437.33,473.78 473.77,473.78 473.77,510.21999999999997" fill="#e2acff"/><rect x="473.78" y="473.78" width="36.44" height="36.44" fill="#c9cfd2"/><polygon points="473.78,473.78 510.21999999999997,510.21999999999997 473.78,510.21999999999997" fill="#263e48"/><rect x="510.22" y="437.33" width="72.89" height="72.89" fill="#be43ff"/><path d="M 510.22 437.33 A 72.89 72.89 0 0 0 583.11 510.21999999999997 L 583.11 437.33" fill="#d17cff"/><rect x="583.1106666666666" y="437.33299999999997" width="72.88883333333332" height="72.88883333333332" fill="#ffffff"/><rect x="583.11" y="437.33" width="36.44" height="36.44" fill="#263e48"/><circle cx="601.33" cy="455.54999999999995" r="18.22" fill="#65767e"/><rect x="619.56" y="437.33" width="36.44" height="36.44" fill="#d689ff"/><rect x="619.56" y="437.33" width="36.44" height="36.44" fill="#eff1f2"/><rect x="583.11" y="473.78" width="36.44" height="36.44" fill="#7921c0"/><circle cx="601.33" cy="492" r="18.22" fill="#b789de"/><rect x="619.56" y="473.78" width="36.44" height="36.44" fill="#8b40c9"/><rect x="619.56" y="473.78" width="36.44" height="36.44" fill="#a56ad5"/><rect x="655.9994999999999" y="437.33299999999997" width="72.88883333333332" height="72.88883333333332" fill="#ffffff"/><rect x="656" y="437.33" width="36.44" height="36.44" fill="#dea0ff"/><path d="M 656 473.77 A 36.44 36.44 0 0 0 692.44 437.33 L 656 437.33" fill="#e1a9ff"/><rect x="692.44" y="437.33" width="36.44" height="36.44" fill="#a3adb1"/><path d="M 692.44 437.33 A 36.44 36.44 0 0 0 728.8800000000001 473.77 L 728.8800000000001 437.33" fill="#bec5c8"/><rect x="656" y="473.78" width="36.44" height="36.44" fill="#ebc7ff"/><path d="M 656 473.78 A 36.44 36.44 0 0 1 692.44 510.21999999999997 L 656 510.21999999999997" fill="#c455ff"/><rect x="692.44" y="473.78" width="36.44" height="36.44" fill="#3b505a"/><path d="M 692.44 510.21999999999997 A 36.44 36.44 0 0 1  728.8800000000001 473.78 L 728.8800000000001 510.21999999999997" fill="#c29be3"/></g></svg>